<svg width="100" height="74" viewBox="0 0 100 74" fill="none" xmlns="http://www.w3.org/2000/svg">
<path fill-rule="evenodd" clip-rule="evenodd" d="M72.8869 17.0573C71.7892 17.0573 70.8013 18.0152 70.8013 19.0797V45.3707H10.4281C4.72009 45.3707 0 49.9477 0 55.4827V63.5723C0 69.1072 4.72009 73.6842 10.4281 73.6842H89.5719C95.2799 73.6842 100 69.1072 100 63.5723V55.4827C100 49.9477 95.2799 45.3707 89.5719 45.3707H74.9726V19.0797C74.9726 18.0152 74.0944 17.0573 72.8869 17.0573ZM91.9868 0.558818C91.2184 -0.186273 89.9012 -0.186273 89.0231 0.558818C88.2547 1.30391 88.2547 2.58121 89.0231 3.43274C97.9144 12.0545 97.9144 26.2112 89.0231 34.833C88.2547 35.5781 88.2547 36.8554 89.0231 37.7069C89.4621 38.1327 90.011 38.3456 90.4501 38.3456C90.9989 38.3456 91.5478 38.1327 91.8771 37.7069C102.415 27.4885 102.415 10.7772 91.8771 0.558818H91.9868ZM56.6411 3.43274C57.4094 2.68765 57.4094 1.41035 56.6411 0.558818C55.8727 -0.186273 54.5554 -0.186273 53.6773 0.558818C43.1394 10.7772 43.1394 27.4885 53.6773 37.7069C54.1164 38.1327 54.6652 38.3456 55.1043 38.3456C55.6531 38.3456 56.202 38.1327 56.5313 37.7069C57.2997 36.9619 57.2997 35.6846 56.5313 34.833C47.64 26.2112 47.64 12.0545 56.5313 3.43274H56.6411ZM86.0593 6.30667C85.2909 5.56157 83.9737 5.56157 83.0955 6.30667C82.3271 7.05176 82.3271 8.32906 83.0955 9.18059C88.8035 14.7156 88.8035 23.6566 83.0955 29.1916C82.3271 29.9367 82.3271 31.214 83.0955 32.0655C83.5346 32.4913 84.0834 32.7042 84.5225 32.7042C85.0714 32.7042 85.6202 32.4913 85.9495 32.0655C93.3041 24.9339 93.3041 13.4383 85.9495 6.41311L86.0593 6.30667ZM62.4588 9.18059C63.2272 8.4355 63.2272 7.1582 62.4588 6.30667C61.6905 5.56157 60.3732 5.56157 59.4951 6.30667C52.1405 13.4383 52.1405 24.9339 59.4951 31.9591C59.9341 32.3849 60.483 32.5977 60.9221 32.5977C61.4709 32.5977 62.0198 32.3849 62.3491 31.9591C63.1175 31.214 63.1175 29.9367 62.3491 29.0852C56.6411 23.5502 56.6411 14.6091 62.3491 9.07415L62.4588 9.18059ZM80.1317 12.0545C79.3633 11.3094 78.0461 11.3094 77.1679 12.0545C76.3996 12.7996 76.3996 14.0769 77.1679 14.9284C78.3754 16.0993 79.034 17.5895 79.034 19.1861C79.034 20.7827 78.3754 22.3794 77.1679 23.4438C76.3996 24.1889 76.3996 25.4662 77.1679 26.3177C77.607 26.7435 78.1559 26.9563 78.595 26.9563C79.1438 26.9563 79.6926 26.7435 80.022 26.3177C81.9978 24.4017 83.0955 21.8471 83.0955 19.1861C83.0955 16.5251 81.9978 13.9705 80.022 12.0545H80.1317ZM66.5203 19.1861C66.5203 17.5895 67.1789 16.0993 68.3864 14.9284C69.1548 14.1833 69.1548 12.906 68.3864 12.0545C67.618 11.3094 66.3008 11.3094 65.4226 12.0545C63.4468 13.9705 62.3491 16.5251 62.3491 19.1861C62.3491 21.8471 63.4468 24.4017 65.4226 26.3177C65.8617 26.7435 66.4105 26.9563 66.8496 26.9563C67.3985 26.9563 67.9473 26.7435 68.2766 26.3177C69.045 25.5726 69.045 24.2953 68.2766 23.4438C67.0692 22.2729 66.4105 20.7827 66.4105 19.1861H66.5203ZM14.4896 61.5499C13.3919 61.5499 12.404 60.5919 12.404 59.5275C12.404 58.4631 13.3919 57.5051 14.4896 57.5051C15.5873 57.5051 16.5752 58.3566 16.5752 59.5275C16.5752 60.5919 15.697 61.5499 14.4896 61.5499ZM27.0033 61.5499C25.9056 61.5499 24.9177 60.5919 24.9177 59.5275C24.9177 58.4631 25.7958 57.5051 27.0033 57.5051C28.101 57.5051 29.0889 58.3566 29.0889 59.5275C29.0889 60.5919 28.101 61.5499 27.0033 61.5499ZM39.517 61.5499C38.4193 61.5499 37.4314 60.5919 37.4314 59.5275C37.4314 58.4631 38.4193 57.5051 39.517 57.5051C40.6147 57.5051 41.6026 58.3566 41.6026 59.5275C41.6026 60.5919 40.7245 61.5499 39.517 61.5499ZM52.0307 61.5499C50.933 61.5499 49.9451 60.5919 49.9451 59.5275C49.9451 58.4631 50.8233 57.5051 52.0307 57.5051C53.1284 57.5051 54.1164 58.3566 54.1164 59.5275C54.1164 60.5919 53.2382 61.5499 52.0307 61.5499ZM85.4007 61.5499H64.5445C63.4468 61.5499 62.4588 60.5919 62.4588 59.5275C62.4588 58.4631 63.4468 57.5051 64.5445 57.5051H85.4007C86.4984 57.5051 87.4863 58.3566 87.4863 59.5275C87.4863 60.5919 86.4984 61.5499 85.4007 61.5499Z" fill="#db5b16"/>
</svg>