<svg width="77" height="61" viewBox="0 0 77 61" fill="none" xmlns="http://www.w3.org/2000/svg">
<path d="M77 0H0V9.74476H77V0Z" fill="#db5b16"/>
<path d="M70.0837 14.742H6.91602V19.2396H70.0837V14.742Z" fill="#db5b16"/>
<path d="M34.2351 45.9753C34.3885 46.2926 34.5712 46.5923 34.7803 46.8698C34.8626 46.824 34.9563 46.808 35.0476 46.8243C35.1389 46.8405 35.223 46.888 35.2875 46.9599C35.352 47.0318 35.3936 47.1242 35.406 47.2236C35.4185 47.3229 35.4012 47.424 35.3567 47.5119C35.6385 47.7767 35.948 48.0048 36.2788 48.1916C36.3354 48.1046 36.4175 48.0411 36.5118 48.0115C36.6061 47.9819 36.7068 47.988 36.7975 48.0287C36.8882 48.0694 36.9634 48.1423 37.0107 48.2355C37.0581 48.3287 37.0748 48.4366 37.058 48.5414C37.3324 48.6344 37.6141 48.7 37.8995 48.7375C37.9149 48.6234 37.9686 48.5194 38.0503 48.4455C38.132 48.3716 38.236 48.333 38.3423 48.337C38.4486 48.341 38.5499 48.3874 38.6266 48.4673C38.7034 48.5472 38.7503 48.655 38.7583 48.77C39.1294 48.7483 39.4969 48.6796 39.8533 48.5651V48.5551C39.8269 48.4984 39.8114 48.4364 39.8078 48.3729C39.8041 48.3095 39.8123 48.2459 39.832 48.186C39.8517 48.1262 39.8824 48.0712 39.9222 48.0246C39.962 47.9779 40.0102 47.9405 40.0638 47.9146C40.1173 47.8887 40.1752 47.8749 40.2338 47.8739C40.2925 47.873 40.3507 47.8849 40.4049 47.9091C40.4592 47.9332 40.5083 47.969 40.5494 48.0144C40.5906 48.0597 40.6227 48.1136 40.6441 48.1728C40.651 48.1891 40.6556 48.2053 40.6614 48.2215C40.9562 48.0598 41.235 47.866 41.4936 47.6431C41.4667 47.6257 41.4416 47.6051 41.4187 47.5819C41.3422 47.4942 41.2998 47.3781 41.3002 47.2574C41.3006 47.1368 41.3438 47.021 41.4209 46.9339C41.4979 46.8469 41.6029 46.7953 41.7141 46.7899C41.8253 46.7845 41.9341 46.8256 42.0181 46.9048C42.0505 46.9386 42.0777 46.9778 42.0988 47.0209C42.3478 46.7161 42.5629 46.3807 42.7397 46.0215C42.6761 46.0258 42.6124 46.0152 42.5529 45.9902C42.4459 45.9452 42.3598 45.8559 42.3136 45.742C42.2673 45.6282 42.2647 45.499 42.3063 45.3831C42.3478 45.2671 42.4302 45.1738 42.5353 45.1237C42.6403 45.0735 42.7595 45.0707 42.8665 45.1157C42.9371 45.1449 42.9992 45.1941 43.0463 45.2581C43.1672 44.8797 43.2469 44.4873 43.2837 44.0888C43.2286 44.1323 43.1648 44.1611 43.0975 44.1728C43.0301 44.1845 42.9612 44.1788 42.8963 44.1561C42.8314 44.1334 42.7724 44.0944 42.7241 44.0422C42.6757 43.9901 42.6395 43.9263 42.6183 43.856C42.597 43.7858 42.5915 43.7111 42.602 43.6381C42.6125 43.565 42.6388 43.4957 42.6787 43.4358C42.7187 43.3759 42.7711 43.3271 42.8318 43.2934C42.8925 43.2596 42.9596 43.2419 43.0278 43.2417C43.1285 43.2412 43.2261 43.2792 43.3033 43.3492C43.288 42.8933 43.2167 42.4416 43.0912 42.0061C43.0691 42.0629 43.0367 42.1143 42.9959 42.1572C42.9551 42.2001 42.9068 42.2337 42.8538 42.256C42.7873 42.2849 42.7151 42.2954 42.6439 42.2866C42.5727 42.2777 42.5047 42.2499 42.4459 42.2055C42.3871 42.161 42.3394 42.1015 42.3071 42.0321C42.2748 41.9628 42.259 41.8858 42.261 41.8082C42.2629 41.7305 42.2827 41.6546 42.3185 41.5873C42.3542 41.52 42.4049 41.4634 42.4658 41.4226C42.5268 41.3817 42.5962 41.358 42.6677 41.3534C42.7393 41.3489 42.8107 41.3637 42.8757 41.3965C42.6808 40.9327 42.4241 40.5025 42.1138 40.1197C42.118 40.2145 42.0955 40.3085 42.0494 40.3892C42.0032 40.4698 41.9356 40.5334 41.8553 40.5715C41.7751 40.6096 41.6861 40.6203 41.6001 40.6023C41.5141 40.5843 41.4351 40.5384 41.3737 40.4707C41.2935 40.3818 41.249 40.2621 41.2501 40.1377C41.2512 40.0134 41.2977 39.8946 41.3795 39.8073C41.4224 39.7611 41.4739 39.7253 41.5305 39.7023C41.5871 39.6792 41.6476 39.6695 41.708 39.6736C41.3275 39.3042 40.8952 39.0027 40.4274 38.7804C40.4604 38.8652 40.4696 38.9588 40.4538 39.0493C40.4381 39.1398 40.398 39.2233 40.3388 39.2893C40.2795 39.3553 40.2036 39.4008 40.1205 39.4203C40.0374 39.4398 39.9509 39.4323 39.8718 39.3988C39.7943 39.3662 39.7272 39.3102 39.6784 39.2373C39.6295 39.1645 39.6011 39.078 39.5965 38.9881C39.5919 38.8982 39.6113 38.8088 39.6523 38.7305C39.6934 38.6522 39.7543 38.5884 39.828 38.5468C39.456 38.4306 39.0724 38.3639 38.6856 38.3481C38.7246 38.4083 38.75 38.4777 38.7596 38.5505C38.7693 38.6233 38.763 38.6976 38.7412 38.7673C38.7195 38.837 38.6829 38.9001 38.6344 38.9516C38.586 39.0032 38.527 39.0416 38.4623 39.0638C38.3976 39.086 38.3289 39.0914 38.2619 39.0795C38.195 39.0676 38.1315 39.0388 38.0767 38.9954C38.0219 38.952 37.9773 38.8952 37.9465 38.8296C37.9157 38.764 37.8996 38.6915 37.8995 38.618C37.8995 38.5329 37.921 38.4495 37.9617 38.3768C37.5318 38.4287 37.1103 38.5435 36.7088 38.7179C36.752 38.7605 36.7866 38.8124 36.8102 38.8703C36.8334 38.9265 36.8461 38.9871 36.8476 39.0486C36.8492 39.1102 36.8396 39.1714 36.8193 39.2289C36.799 39.2864 36.7685 39.339 36.7294 39.3837C36.6904 39.4283 36.6436 39.4643 36.5918 39.4894C36.5399 39.5145 36.484 39.5283 36.4273 39.53C36.3705 39.5316 36.314 39.5212 36.261 39.4992C36.2079 39.4772 36.1594 39.4441 36.1182 39.4018C36.0769 39.3595 36.0438 39.3088 36.0206 39.2526C36.0017 39.208 35.9896 39.1603 35.9849 39.1115C35.6948 39.3055 35.4244 39.532 35.178 39.7873C35.202 39.8036 35.2244 39.8224 35.2448 39.8436C35.3213 39.9312 35.3637 40.0474 35.3633 40.168C35.3629 40.2886 35.3197 40.4045 35.2427 40.4915C35.1656 40.5786 35.0606 40.6301 34.9494 40.6356C34.8383 40.641 34.7294 40.5999 34.6454 40.5207C34.6345 40.5092 34.6241 40.4972 34.6143 40.4845C34.4152 40.7789 34.2456 41.0956 34.1083 41.429C34.2167 41.4695 34.3057 41.5551 34.3559 41.6669C34.406 41.7787 34.4132 41.9074 34.3757 42.0249C34.3383 42.1423 34.2593 42.2389 34.1562 42.2932C34.0531 42.3476 33.9343 42.3553 33.8259 42.3147C33.7575 42.6198 33.7143 42.9309 33.6968 43.2442C33.7978 43.2596 33.8906 43.3132 33.9587 43.3955C34.0268 43.4779 34.0659 43.5837 34.0689 43.6943C34.0719 43.8048 34.0388 43.913 33.9753 43.9996C33.9119 44.0862 33.8222 44.1457 33.7221 44.1675C33.7567 44.4945 33.8204 44.817 33.9123 45.1307C34.009 45.1126 34.1086 45.1307 34.1945 45.182C34.2805 45.2333 34.3478 45.3148 34.3854 45.4131C34.4229 45.5114 34.4285 45.6206 34.4012 45.7227C34.3739 45.8249 34.3153 45.914 34.2351 45.9753ZM35.291 45.5392C35.2114 45.5739 35.1241 45.5823 35.0401 45.5631C34.9562 45.544 34.8793 45.4983 34.8194 45.4319C34.7594 45.3654 34.719 45.2811 34.7032 45.1897C34.6874 45.0984 34.697 45.004 34.7308 44.9185C34.7646 44.833 34.821 44.7603 34.8929 44.7096C34.9648 44.659 35.049 44.6325 35.1348 44.6337C35.2205 44.6349 35.3041 44.6636 35.3747 44.7163C35.4454 44.769 35.5001 44.8432 35.5319 44.9296C35.5729 45.0445 35.5706 45.1722 35.5256 45.2853C35.4805 45.3984 35.3963 45.4878 35.291 45.5342V45.5392ZM36.1751 46.6711C36.114 46.7359 36.0366 46.7796 35.9526 46.7967C35.8687 46.8139 35.7819 46.8036 35.7033 46.7673C35.6247 46.731 35.5578 46.6703 35.511 46.5928C35.4642 46.5153 35.4397 46.4245 35.4405 46.3319C35.4413 46.2393 35.4674 46.149 35.5155 46.0725C35.5636 45.996 35.6316 45.9366 35.7108 45.9019C35.79 45.8672 35.877 45.8588 35.9606 45.8776C36.0443 45.8964 36.1209 45.9417 36.1808 46.0077C36.26 46.0962 36.3037 46.215 36.3027 46.3382C36.3016 46.4615 36.2557 46.5793 36.1751 46.6661V46.6711ZM37.4903 47.372C37.4594 47.4584 37.4056 47.533 37.3356 47.5862C37.2656 47.6395 37.1826 47.6691 37.0972 47.6712C37.0117 47.6733 36.9275 47.648 36.8554 47.5982C36.7832 47.5485 36.7262 47.4767 36.6917 47.392C36.6572 47.3072 36.6467 47.2132 36.6614 47.1219C36.6762 47.0306 36.7156 46.9461 36.7747 46.8791C36.8338 46.8121 36.9099 46.7656 36.9933 46.7455C37.0768 46.7254 37.1639 46.7325 37.2436 46.7661C37.3491 46.8113 37.4341 46.8996 37.4802 47.0119C37.5263 47.1243 37.5299 47.2518 37.4903 47.367V47.372ZM38.3329 47.9242C38.2471 47.9245 38.1631 47.8971 38.0917 47.8456C38.0202 47.794 37.9645 47.7207 37.9316 47.6348C37.8986 47.5489 37.8899 47.4544 37.9066 47.3631C37.9233 47.2719 37.9646 47.1881 38.0253 47.1223C38.086 47.0565 38.1633 47.0118 38.2475 46.9937C38.3317 46.9756 38.4189 46.985 38.4982 47.0207C38.5774 47.0564 38.6451 47.1168 38.6926 47.1943C38.7402 47.2717 38.7654 47.3627 38.7652 47.4557C38.764 47.5791 38.7179 47.697 38.637 47.7838C38.556 47.8705 38.4468 47.9192 38.3329 47.9192V47.9242ZM39.9179 47.5582C39.8397 47.5958 39.7531 47.6076 39.6687 47.5921C39.5844 47.5765 39.5063 47.5342 39.4441 47.4705C39.3819 47.4069 39.3385 47.3247 39.3193 47.2344C39.3001 47.1441 39.306 47.0496 39.3362 46.9629C39.3665 46.8762 39.4197 46.8011 39.4892 46.7471C39.5587 46.6931 39.6415 46.6627 39.7269 46.6595C39.8124 46.6564 39.8968 46.6807 39.9696 46.7295C40.0423 46.7782 40.1001 46.8492 40.1357 46.9335C40.1824 47.047 40.1857 47.176 40.1449 47.2921C40.1041 47.4082 40.0224 47.5021 39.9179 47.5532V47.5582ZM41.1317 46.6312C41.0724 46.6979 40.9961 46.7442 40.9126 46.764C40.8291 46.7838 40.742 46.7763 40.6624 46.7425C40.5828 46.7087 40.5142 46.65 40.4654 46.574C40.4165 46.4979 40.3896 46.4078 40.388 46.3152C40.3864 46.2225 40.4101 46.1314 40.4563 46.0534C40.5025 45.9754 40.5689 45.914 40.6473 45.8769C40.7257 45.8399 40.8125 45.8288 40.8966 45.8452C40.9808 45.8616 41.0586 45.9047 41.1201 45.969C41.2015 46.0548 41.2484 46.172 41.2505 46.295C41.2527 46.4181 41.21 46.537 41.1317 46.6262V46.6312ZM41.9512 45.2394C41.9202 45.3257 41.8662 45.4 41.7962 45.4531C41.7262 45.5062 41.6432 45.5355 41.5578 45.5375C41.4724 45.5395 41.3883 45.514 41.3162 45.4643C41.2442 45.4145 41.1873 45.3427 41.1529 45.2579C41.1185 45.1732 41.108 45.0793 41.1228 44.9881C41.1376 44.8969 41.177 44.8124 41.236 44.7455C41.295 44.6785 41.371 44.632 41.4544 44.6119C41.5378 44.5917 41.6249 44.5988 41.7045 44.6322C41.8105 44.6772 41.8959 44.7656 41.942 44.8784C41.9882 44.9911 41.9915 45.1191 41.9512 45.2344V45.2394ZM42.2152 43.7165C42.2154 43.8094 42.1902 43.9004 42.1427 43.9778C42.0952 44.0552 42.0276 44.1156 41.9484 44.1514C41.8693 44.1871 41.7821 44.1966 41.6979 44.1786C41.6138 44.1606 41.5364 44.116 41.4757 44.0503C41.415 43.9847 41.3736 43.901 41.3568 43.8098C41.34 43.7187 41.3485 43.6242 41.3812 43.5382C41.414 43.4523 41.4696 43.3789 41.5409 43.3272C41.6122 43.2756 41.696 43.248 41.7818 43.248C41.8957 43.248 42.0051 43.2966 42.0862 43.3833C42.1673 43.4701 42.2137 43.588 42.2152 43.7115V43.7165ZM41.3818 41.89C41.4614 41.8555 41.5487 41.8474 41.6326 41.8667C41.7165 41.886 41.7932 41.9319 41.853 41.9985C41.9128 42.0651 41.9531 42.1494 41.9687 42.2408C41.9843 42.3322 41.9745 42.4265 41.9406 42.5119C41.9067 42.5973 41.8502 42.6698 41.7783 42.7204C41.7063 42.7709 41.6221 42.7972 41.5364 42.7959C41.4507 42.7946 41.3672 42.7657 41.2966 42.713C41.226 42.6603 41.1714 42.586 41.1397 42.4996C41.0973 42.384 41.099 42.2548 41.1444 42.1405C41.1898 42.0262 41.2752 41.9361 41.3818 41.89ZM40.4965 40.7581C40.557 40.6927 40.634 40.6482 40.7179 40.6302C40.8017 40.6122 40.8885 40.6215 40.9675 40.657C41.0464 40.6925 41.1138 40.7526 41.1613 40.8296C41.2087 40.9066 41.2341 40.9972 41.2341 41.0898C41.2341 41.1824 41.2087 41.2729 41.1613 41.3499C41.1138 41.4269 41.0464 41.487 40.9675 41.5225C40.8885 41.558 40.8017 41.5673 40.7179 41.5493C40.634 41.5314 40.557 41.4869 40.4965 41.4215C40.4147 41.3342 40.3682 41.2154 40.3671 41.0911C40.366 40.9667 40.4105 40.8469 40.4908 40.7581H40.4965ZM39.1813 40.0572C39.2122 39.9708 39.266 39.8962 39.336 39.843C39.406 39.7897 39.4889 39.7601 39.5744 39.758C39.6599 39.7559 39.7441 39.7813 39.8162 39.831C39.8884 39.8807 39.9453 39.9525 39.9799 40.0372C40.0144 40.122 40.0249 40.216 40.0102 40.3073C39.9954 40.3986 39.956 40.4831 39.8969 40.5501C39.8378 40.6171 39.7617 40.6636 39.6783 40.6837C39.5948 40.7038 39.5077 40.6967 39.428 40.6631C39.3746 40.6415 39.3256 40.6086 39.284 40.5664C39.2424 40.5241 39.2089 40.4734 39.1854 40.4171C39.1619 40.3608 39.149 40.3 39.1473 40.2382C39.1456 40.1764 39.1552 40.1149 39.1755 40.0572H39.1813ZM38.3387 39.505C38.4241 39.506 38.5073 39.5343 38.5778 39.5863C38.6484 39.6384 38.7033 39.7119 38.7355 39.7976C38.7677 39.8833 38.7758 39.9773 38.7588 40.068C38.7419 40.1587 38.7006 40.242 38.6401 40.3073C38.5797 40.3727 38.5028 40.4172 38.419 40.4353C38.3353 40.4535 38.2485 40.4444 38.1695 40.4093C38.0906 40.3742 38.0229 40.3146 37.9751 40.2379C37.9272 40.1613 37.9013 40.071 37.9007 39.9785C37.9 39.9165 37.9108 39.8551 37.9322 39.7977C37.9537 39.7402 37.9854 39.688 38.0256 39.644C38.0658 39.5999 38.1137 39.565 38.1664 39.5411C38.2192 39.5173 38.2758 39.505 38.3329 39.505H38.3387ZM36.7549 39.871C36.8331 39.8336 36.9198 39.822 37.004 39.8378C37.0883 39.8536 37.1663 39.896 37.2284 39.9598C37.2904 40.0236 37.3337 40.1058 37.3527 40.1961C37.3717 40.2865 37.3657 40.3809 37.3353 40.4675C37.3049 40.5542 37.2516 40.6291 37.182 40.683C37.1124 40.7368 37.0297 40.7671 36.9442 40.7702C36.8588 40.7732 36.7744 40.7487 36.7017 40.6999C36.6291 40.6511 36.5714 40.58 36.5359 40.4957C36.5119 40.4395 36.4984 40.3788 36.4961 40.3169C36.4938 40.2551 36.5029 40.1934 36.5227 40.1353C36.5425 40.0773 36.5727 40.0241 36.6116 39.9787C36.6504 39.9333 36.6972 39.8968 36.7491 39.871H36.7549ZM38.3387 40.898C38.8487 40.8977 39.3474 41.0614 39.7716 41.3684C40.1958 41.6753 40.5265 42.1117 40.7218 42.6224C40.9171 43.133 40.9684 43.695 40.869 44.2372C40.7696 44.7794 40.5241 45.2775 40.1636 45.6685C39.803 46.0595 39.3435 46.3258 38.8433 46.4337C38.3431 46.5416 37.8246 46.4864 37.3533 46.2749C36.8821 46.0634 36.4793 45.7052 36.1959 45.2455C35.9125 44.7859 35.7613 44.2455 35.7613 43.6927C35.7616 42.9529 36.0324 42.2434 36.5144 41.7196C36.9964 41.1957 37.6503 40.9003 38.3329 40.898H38.3387ZM35.5399 40.7968C35.5994 40.7298 35.6758 40.6833 35.7596 40.6634C35.8433 40.6435 35.9307 40.6509 36.0105 40.6848C36.0904 40.7187 36.1592 40.7775 36.2082 40.8538C36.2572 40.9301 36.2842 41.0204 36.2858 41.1134C36.2874 41.2063 36.2636 41.2977 36.2173 41.3759C36.1709 41.4542 36.1042 41.5157 36.0256 41.5529C35.947 41.59 35.86 41.601 35.7756 41.5845C35.6912 41.568 35.6132 41.5247 35.5515 41.4602C35.5101 41.4179 35.4768 41.3672 35.4535 41.3109C35.4302 41.2547 35.4174 41.194 35.4158 41.1324C35.4141 41.0708 35.4238 41.0094 35.4441 40.9518C35.4644 40.8942 35.495 40.8415 35.5342 40.7968H35.5399ZM34.7204 42.1898C34.7514 42.1035 34.8054 42.0292 34.8754 41.9761C34.9454 41.923 35.0284 41.8937 35.1138 41.8917C35.1992 41.8897 35.2833 41.9152 35.3554 41.9649C35.4274 42.0147 35.4843 42.0865 35.5187 42.1713C35.5531 42.256 35.5636 42.3499 35.5488 42.4411C35.534 42.5323 35.4946 42.6168 35.4356 42.6837C35.3766 42.7507 35.3006 42.7972 35.2172 42.8173C35.1338 42.8375 35.0467 42.8304 34.967 42.797C34.9136 42.7752 34.8646 42.7422 34.823 42.6998C34.7814 42.6575 34.7479 42.6067 34.7244 42.5502C34.7009 42.4938 34.688 42.4329 34.6863 42.3711C34.6846 42.3092 34.6943 42.2476 34.7146 42.1898H34.7204ZM34.8898 43.243C34.9756 43.2427 35.0596 43.2701 35.131 43.3216C35.2025 43.3731 35.2582 43.4465 35.2912 43.5324C35.3241 43.6183 35.3328 43.7128 35.3161 43.8041C35.2994 43.8953 35.2581 43.9791 35.1974 44.0449C35.1368 44.1107 35.0594 44.1554 34.9752 44.1735C34.8911 44.1916 34.8038 44.1822 34.7246 44.1465C34.6453 44.1108 34.5777 44.0504 34.5301 43.9729C34.4826 43.8955 34.4573 43.8045 34.4576 43.7115C34.4575 43.5883 34.5023 43.4701 34.5821 43.3824C34.6619 43.2947 34.7704 43.2446 34.8841 43.243H34.8898Z" fill="#db5b16"/>
<path d="M38.3328 44.601C38.4991 44.6012 38.6617 44.548 38.8001 44.448C38.9385 44.348 39.0464 44.2058 39.1101 44.0394C39.1738 43.8729 39.1906 43.6897 39.1582 43.5129C39.1258 43.3361 39.0458 43.1737 38.9282 43.0462C38.8106 42.9188 38.6607 42.832 38.4976 42.7969C38.3345 42.7618 38.1655 42.78 38.0119 42.849C37.8583 42.9181 37.727 43.0351 37.6348 43.185C37.5425 43.335 37.4934 43.5113 37.4937 43.6915C37.494 43.9326 37.5825 44.1637 37.7398 44.3342C37.8971 44.5047 38.1103 44.6007 38.3328 44.601Z" fill="#db5b16"/>
<path d="M36.425 60.2176H40.5747C56.8726 60.2176 70.0837 45.8978 70.0837 28.2348H6.91602C6.91602 45.8978 20.1282 60.2176 36.425 60.2176ZM38.4998 37.5198C39.6021 37.5198 40.6797 37.8741 41.5962 38.5378C42.5127 39.2016 43.2271 40.145 43.6489 41.2487C44.0707 42.3525 44.1811 43.567 43.966 44.7388C43.751 45.9105 43.2202 46.9868 42.4408 47.8316C41.6613 48.6764 40.6683 49.2517 39.5871 49.4847C38.506 49.7178 37.3854 49.5982 36.367 49.141C35.3487 48.6838 34.4782 47.9096 33.8658 46.9162C33.2534 45.9229 32.9266 44.755 32.9266 43.5603C32.9266 42.7671 33.0707 41.9816 33.3508 41.2487C33.6309 40.5158 34.0414 39.8499 34.5589 39.289C35.0765 38.7281 35.6909 38.2832 36.367 37.9796C37.0432 37.676 37.768 37.5198 38.4998 37.5198Z" fill="#db5b16"/>
</svg>