<svg width="80" height="80" viewBox="0 0 80 80" fill="none" xmlns="http://www.w3.org/2000/svg">
<path fill-rule="evenodd" clip-rule="evenodd" d="M79.4684 1.59204C79.4684 1.59204 79.4684 1.59204 79.4684 1.45937C78.9369 0.66335 78.0066 0.13267 76.9435 0.13267H23.6545C21.9269 0.13267 20.4651 1.59204 20.4651 3.31675V16.3184V22.1559V67.131C20.4651 67.7944 20.598 68.325 20.9967 68.8557C20.9967 68.8557 20.9967 68.8557 20.9967 68.9884C21.5282 69.7844 22.4585 70.3151 23.5216 70.3151H27.3754C26.711 74.5605 23.1229 77.8773 18.6047 77.8773C14.0864 77.8773 10.4983 74.5605 9.83389 70.1824H13.8206C15.5482 70.1824 17.01 68.7231 17.01 66.9983V3.18408C17.01 2.52073 16.8771 1.99005 16.4784 1.45937C16.4784 1.45937 16.4784 1.45937 16.4784 1.3267C15.9468 0.53068 15.0166 0 13.9535 0H3.18937C1.46179 0 0 1.45937 0 3.18408V66.9983C0 67.6617 0.13289 68.1924 0.531561 68.7231C0.531561 68.7231 0.531561 68.7231 0.531561 68.8557C1.06312 69.6517 1.99336 70.1824 3.05648 70.1824H7.70764C8.37209 75.6219 12.8904 80 18.6047 80C24.186 80 28.8372 75.7546 29.5017 70.3151H76.8106C78.5382 70.3151 80 68.8557 80 67.131V3.31675C80 2.6534 79.8671 2.12272 79.4684 1.59204ZM40.5316 47.3632C40.5316 48.1592 39.8671 48.6899 39.2027 48.6899H31.7608C30.9635 48.6899 30.4319 48.1592 30.4319 47.3632V44.1791C30.4319 43.3831 30.9635 42.8524 31.7608 42.8524H39.2027C40 42.8524 40.5316 43.5158 40.5316 44.1791V47.3632ZM40.5316 36.7496C40.5316 37.5456 39.8671 38.0763 39.2027 38.0763H31.7608C30.9635 38.0763 30.4319 37.4129 30.4319 36.7496V33.5655C30.4319 32.7695 30.9635 32.2388 31.7608 32.2388H39.2027C40 32.2388 40.5316 32.9022 40.5316 33.5655V36.7496ZM40.5316 26.136C40.5316 26.932 39.8671 27.4627 39.2027 27.4627H31.7608C30.9635 27.4627 30.4319 26.7993 30.4319 26.136V22.9519C30.4319 22.1559 30.9635 21.6252 31.7608 21.6252H39.2027C40 21.6252 40.5316 22.2886 40.5316 22.9519V26.136ZM55.1495 47.3632C55.1495 48.1592 54.6179 48.6899 53.8206 48.6899H46.3787C45.5814 48.6899 45.0498 48.1592 45.0498 47.3632V44.1791C45.0498 43.3831 45.5814 42.8524 46.3787 42.8524H53.8206C54.6179 42.8524 55.1495 43.5158 55.1495 44.1791V47.3632ZM55.1495 36.7496C55.1495 37.5456 54.6179 38.0763 53.8206 38.0763H46.3787C45.5814 38.0763 45.0498 37.4129 45.0498 36.7496V33.5655C45.0498 32.7695 45.5814 32.2388 46.3787 32.2388H53.8206C54.6179 32.2388 55.1495 32.9022 55.1495 33.5655V36.7496ZM55.1495 26.136C55.1495 26.932 54.6179 27.4627 53.8206 27.4627H46.3787C45.5814 27.4627 45.0498 26.7993 45.0498 26.136V22.9519C45.0498 22.1559 45.5814 21.6252 46.3787 21.6252H53.8206C54.6179 21.6252 55.1495 22.2886 55.1495 22.9519V26.136ZM69.7674 47.3632C69.7674 48.1592 69.103 48.6899 68.4385 48.6899H61.1296C60.3322 48.6899 59.8007 48.1592 59.8007 47.3632V44.1791C59.8007 43.3831 60.3322 42.8524 61.1296 42.8524H68.4385C69.2359 42.8524 69.7674 43.5158 69.7674 44.1791V47.3632ZM69.7674 36.7496C69.7674 37.5456 69.103 38.0763 68.4385 38.0763H61.1296C60.3322 38.0763 59.8007 37.4129 59.8007 36.7496V33.5655C59.8007 32.7695 60.3322 32.2388 61.1296 32.2388H68.4385C69.2359 32.2388 69.7674 32.9022 69.7674 33.5655V36.7496ZM69.7674 26.136C69.7674 26.932 69.103 27.4627 68.4385 27.4627H61.1296C60.3322 27.4627 59.8007 26.7993 59.8007 26.136V22.9519C59.8007 22.1559 60.3322 21.6252 61.1296 21.6252H68.4385C69.2359 21.6252 69.7674 22.2886 69.7674 22.9519V26.136Z" fill="#db5b16"/>
</svg>